<?xml version="1.0" encoding="UTF-8"?>
<svg width="612px" height="166px" viewBox="0 0 612 166" version="1.1" xmlns="http://www.w3.org/2000/svg" xmlns:xlink="http://www.w3.org/1999/xlink">
    <!-- Generator: Sketch 43.2 (39069) - http://www.bohemiancoding.com/sketch -->
    <title>Desktop HD</title>
    <desc>Created with Sketch.</desc>
    <defs></defs>
    <g id="Page-1" stroke="none" stroke-width="1" fill="none" fill-rule="evenodd">
        <g id="Desktop-HD" fill-rule="nonzero" fill="#FFFFFF">
            <g id="Group">
                <g transform="translate(242.000000, 0.000000)" id="Shape">
                    <path d="M21.263,15.218 L21.263,0.701 L28.469,0.701 L28.469,41.815 L21.263,41.815 L21.263,38.798 C20.338,40.479 17.491,42.281 14.181,42.281 C5.587,42.281 0.825,36.414 0.825,27.179 C0.825,17.944 5.587,12.079 14.181,12.079 C17.027,12.081 19.932,13.534 21.263,15.218 Z M8.375,27.181 C8.375,29.97 9.013,32.177 10.292,33.743 C11.566,35.312 13.195,36.126 15.17,36.126 C17.142,36.126 18.769,35.373 19.988,33.804 C21.262,32.236 21.906,30.028 21.906,27.181 C21.906,24.335 21.262,22.187 19.988,20.619 C18.768,19.051 17.141,18.238 15.17,18.238 C13.195,18.238 11.566,19.05 10.292,20.619 C9.013,22.187 8.375,24.395 8.375,27.181 Z"></path>
                    <path d="M70.17,29.505 L50.02,29.505 C50.191,33.047 52.749,36.126 56.932,36.126 C59.895,36.126 62.275,34.616 64.017,31.595 L69.823,33.743 C67.326,39.435 62.915,42.282 56.523,42.282 C46.479,42.282 42.469,34.153 42.469,27.18 C42.469,20.213 46.479,12.08 56.523,12.08 C61.169,12.08 64.946,13.996 67.039,16.959 C69.127,19.805 70.171,23.232 70.171,26.543 L70.171,29.505 L70.17,29.505 Z M50.191,23.813 L62.799,23.813 C61.984,20.096 59.895,18.237 56.523,18.237 C53.098,18.237 50.717,20.737 50.191,23.813 Z"></path>
                    <polygon points="82.631 29.603 82.631 23.867 132.39 23.867 132.39 29.603"></polygon>
                    <path d="M28.407,88.584 C26.147,94.158 21.732,96.948 15.112,96.948 C10.524,96.948 7.037,95.496 4.541,92.649 C2.043,89.804 0.824,86.202 0.824,81.848 C0.824,77.49 2.043,73.891 4.541,71.045 C7.037,68.199 10.524,66.747 15.112,66.747 C21.732,66.747 26.147,69.535 28.407,75.109 L21.965,77.722 C20.4,74.529 18.075,72.903 15.112,72.903 C10.697,72.903 8.375,76.504 8.375,81.847 C8.375,87.189 10.698,90.788 15.112,90.788 C18.075,90.788 20.4,89.16 21.965,85.97 L28.407,88.584 Z"></path>
                    <path d="M68.528,84.173 L48.379,84.173 C48.553,87.714 51.108,90.79 55.292,90.79 C58.252,90.79 60.635,89.284 62.374,86.262 L68.181,88.409 C65.686,94.099 61.275,96.948 54.882,96.948 C44.838,96.948 40.831,88.815 40.831,81.848 C40.831,74.878 44.838,66.747 54.882,66.747 C59.53,66.747 63.307,68.665 65.396,71.625 C67.486,74.472 68.528,77.898 68.528,81.207 L68.528,84.173 L68.528,84.173 Z M48.552,78.481 L61.153,78.481 C60.341,74.762 58.252,72.904 54.882,72.904 C51.455,72.904 49.075,75.401 48.552,78.481 Z"></path>
                    <path d="M82.635,67.214 L89.834,67.214 L89.834,71.917 C92.215,68.491 95.237,66.748 98.896,66.748 C104.293,66.748 107.897,69.828 107.897,75.575 L107.897,96.481 L100.693,96.481 L100.693,77.723 C100.693,74.53 99.298,72.904 96.512,72.904 C92.796,72.904 89.833,77.432 89.833,84.808 L89.833,96.481 L82.634,96.481 L82.634,67.214 L82.635,67.214 Z"></path>
                    <path d="M140.699,95.901 C139.19,96.598 137.62,96.948 135.938,96.948 C129.199,96.948 125.191,93.289 125.191,86.145 L125.191,73.368 L120.666,73.368 L120.666,67.214 L125.191,67.214 L125.191,59.894 L132.393,55.367 L132.393,67.215 L140.119,67.215 L140.119,73.369 L132.393,73.369 L132.393,86.032 C132.393,89.513 133.671,90.791 136.228,90.791 C137.213,90.791 138.144,90.561 139.013,90.096 L140.699,95.901 Z"></path>
                    <path d="M161.771,96.481 L154.57,96.481 L154.57,67.213 L161.771,67.213 L161.771,71.974 C163.864,68.665 167,66.747 170.424,66.747 C171.528,66.747 172.688,66.921 173.968,67.327 L172.631,74.005 C171.759,73.484 170.714,73.193 169.612,73.193 C165.023,73.193 161.77,77.201 161.77,86.086 L161.77,96.481 L161.771,96.481 Z"></path>
                    <path d="M185.633,74.879 C186.556,69.997 190.916,66.748 196.781,66.748 C204.969,66.748 209.093,70.813 209.093,79.001 L209.093,96.481 L203.17,96.481 L202.409,92.764 C200.147,95.554 197.124,96.948 193.41,96.948 C188.239,96.948 184.528,93.696 184.528,88.061 C184.528,82.254 189.577,78.481 197.012,78.481 L201.891,78.481 L201.891,77.202 C201.891,74.354 200.207,72.904 196.78,72.904 C194.163,72.904 192.48,74.006 191.729,76.272 L185.633,74.879 Z M195.095,90.79 C196.9,90.79 198.467,90.21 199.798,89.106 C201.195,88.002 201.892,86.551 201.892,84.753 L201.892,84.172 L197.075,84.172 C193.76,84.172 192.074,85.447 192.074,87.945 C192.073,89.513 193.181,90.79 195.095,90.79 Z"></path>
                    <polygon points="223.775 55.366 230.975 55.366 230.975 96.481 223.775 96.481"></polygon>
                    <path d="M246.414,55.481 C248.209,53.68 251.233,53.68 253.032,55.481 C254.838,57.281 254.838,60.303 253.032,62.102 C251.233,63.9 248.209,63.9 246.414,62.102 C244.612,60.304 244.612,57.281 246.414,55.481 Z M246.123,67.214 L253.325,67.214 L253.325,96.482 L246.123,96.482 L246.123,67.214 Z"></path>
                    <polygon points="267.661 73.368 267.661 67.214 288.335 67.214 288.335 69.997 275.786 90.327 289.147 90.327 289.147 96.481 266.73 96.481 266.73 93.696 279.391 73.368"></polygon>
                    <path d="M328.512,84.173 L308.36,84.173 C308.535,87.714 311.089,90.79 315.268,90.79 C318.233,90.79 320.613,89.284 322.357,86.262 L328.164,88.409 C325.668,94.099 321.252,96.948 314.864,96.948 C304.82,96.948 300.813,88.815 300.813,81.848 C300.813,74.878 304.82,66.747 314.864,66.747 C319.511,66.747 323.286,68.665 325.377,71.625 C327.468,74.472 328.513,77.898 328.513,81.207 L328.513,84.173 L328.512,84.173 Z M308.535,78.481 L321.135,78.481 C320.325,74.762 318.234,72.904 314.864,72.904 C311.44,72.904 309.055,75.401 308.535,78.481 Z"></path>
                    <path d="M362.302,69.884 L362.302,55.366 L369.503,55.366 L369.503,96.481 L362.302,96.481 L362.302,93.463 C361.373,95.147 358.526,96.947 355.218,96.947 C346.618,96.947 341.858,91.08 341.858,81.847 C341.858,72.613 346.618,66.746 355.218,66.746 C358.062,66.748 360.965,68.2 362.302,69.884 Z M349.409,81.849 C349.409,84.634 350.047,86.843 351.325,88.41 C352.601,89.98 354.227,90.791 356.202,90.791 C358.178,90.791 359.803,90.038 361.026,88.469 C362.301,86.902 362.942,84.694 362.942,81.85 C362.942,79.002 362.302,76.856 361.026,75.286 C359.803,73.718 358.177,72.906 356.202,72.906 C354.227,72.906 352.601,73.718 351.325,75.286 C350.047,76.854 349.409,79.058 349.409,81.849 Z"></path>
                    <g transform="translate(120.000000, 133.000000)">
                        <path d="M12.444,24.651 C11.555,25.057 10.638,25.262 9.648,25.262 C5.697,25.262 3.348,23.114 3.348,18.924 L3.348,11.43 L0.687,11.43 L0.687,7.819 L3.348,7.819 L3.348,3.528 L7.572,0.87 L7.572,7.819 L12.104,7.819 L12.104,11.43 L7.572,11.43 L7.572,18.859 C7.572,20.901 8.32,21.653 9.82,21.653 C10.401,21.653 10.944,21.516 11.453,21.243 L12.444,24.651 Z"></path>
                        <path d="M35.411,17.769 L23.587,17.769 C23.69,19.845 25.188,21.654 27.639,21.654 C29.38,21.654 30.775,20.765 31.797,18.994 L35.205,20.256 C33.742,23.594 31.153,25.264 27.404,25.264 C21.508,25.264 19.161,20.494 19.161,16.407 C19.161,12.317 21.509,7.549 27.404,7.549 C30.124,7.549 32.343,8.673 33.572,10.41 C34.797,12.079 35.411,14.09 35.411,16.032 L35.411,17.769 L35.411,17.769 Z M23.69,14.429 L31.083,14.429 C30.607,12.249 29.38,11.161 27.404,11.161 C25.393,11.161 23.995,12.623 23.69,14.429 Z"></path>
                        <path d="M59.432,20.357 C58.106,23.628 55.515,25.262 51.632,25.262 C48.939,25.262 46.895,24.409 45.43,22.741 C43.964,21.07 43.247,18.957 43.247,16.404 C43.247,13.845 43.964,11.736 45.43,10.067 C46.894,8.398 48.938,7.546 51.632,7.546 C55.515,7.546 58.106,9.182 59.432,12.451 L55.651,13.984 C54.731,12.108 53.366,11.16 51.632,11.16 C49.04,11.16 47.682,13.269 47.682,16.404 C47.682,19.538 49.04,21.652 51.632,21.652 C53.366,21.652 54.731,20.697 55.651,18.822 L59.432,20.357 Z"></path>
                        <path d="M67.27,0.87 L71.497,0.87 L71.497,10.578 C72.761,8.569 74.603,7.547 76.952,7.547 C80.257,7.547 82.295,9.319 82.295,12.726 L82.295,24.991 L78.072,24.991 L78.072,14.224 C78.072,12.18 77.22,11.162 75.517,11.162 C73.338,11.162 71.497,13.407 71.497,17.735 L71.497,24.991 L67.27,24.991 L67.27,0.87 L67.27,0.87 Z"></path>
                        <path d="M91.435,7.819 L95.658,7.819 L95.658,10.578 C97.055,8.569 98.824,7.547 100.972,7.547 C104.14,7.547 106.253,9.351 106.253,12.726 L106.253,24.991 L102.027,24.991 L102.027,13.986 C102.027,12.11 101.209,11.162 99.571,11.162 C97.393,11.162 95.658,13.818 95.658,18.141 L95.658,24.991 L91.435,24.991 L91.435,7.819 L91.435,7.819 Z"></path>
                        <path d="M114.465,16.405 C114.465,13.846 115.251,11.737 116.818,10.068 C118.388,8.399 120.499,7.547 123.188,7.547 C125.881,7.547 127.994,8.4 129.56,10.068 C131.129,11.737 131.913,13.846 131.913,16.405 C131.913,18.958 131.129,21.106 129.56,22.775 C127.994,24.446 125.881,25.262 123.188,25.262 C120.499,25.262 118.388,24.446 116.818,22.775 C115.25,21.106 114.465,18.958 114.465,16.405 Z M118.896,16.405 C118.896,17.869 119.272,19.13 120.056,20.152 C120.841,21.141 121.862,21.653 123.188,21.653 C124.517,21.653 125.541,21.141 126.323,20.152 C127.108,19.13 127.482,17.869 127.482,16.405 C127.482,14.94 127.108,13.678 126.323,12.692 C125.541,11.669 124.516,11.161 123.188,11.161 C121.862,11.161 120.841,11.669 120.056,12.692 C119.271,13.679 118.896,14.94 118.896,16.405 Z"></path>
                        <polygon points="140.33 0.87 144.55 0.87 144.55 24.99 140.33 24.99"></polygon>
                        <path d="M152.902,16.405 C152.902,13.846 153.688,11.737 155.256,10.068 C156.824,8.399 158.932,7.547 161.624,7.547 C164.32,7.547 166.428,8.4 167.999,10.068 C169.566,11.737 170.35,13.846 170.35,16.405 C170.35,18.958 169.566,21.106 167.999,22.775 C166.429,24.446 164.32,25.262 161.624,25.262 C158.932,25.262 156.823,24.446 155.256,22.775 C153.688,21.106 152.902,18.958 152.902,16.405 Z M157.331,16.405 C157.331,17.869 157.712,19.13 158.494,20.152 C159.275,21.141 160.296,21.653 161.625,21.653 C162.956,21.653 163.979,21.141 164.76,20.152 C165.542,19.13 165.919,17.869 165.919,16.405 C165.919,14.94 165.542,13.678 164.76,12.692 C163.978,11.669 162.956,11.161 161.625,11.161 C160.296,11.161 159.275,11.669 158.494,12.692 C157.711,13.679 157.331,14.94 157.331,16.405 Z"></path>
                        <path d="M180.708,9.147 C181.899,8.092 183.4,7.546 185.205,7.546 C186.333,7.546 187.387,7.783 188.377,8.295 L191.609,6.592 L193.281,9.387 L190.825,10.611 C191.27,11.395 191.508,12.315 191.508,13.339 C191.508,15.077 190.896,16.474 189.701,17.53 C188.515,18.55 187.014,19.064 185.205,19.064 C184.352,19.064 183.501,18.924 182.717,18.686 C182.173,18.993 181.9,19.434 181.9,19.981 C181.9,20.833 182.448,21.243 183.501,21.243 L187.014,21.243 C190.692,21.243 193.037,23.046 193.037,26.284 C193.037,27.612 192.635,28.737 191.847,29.657 C190.248,31.531 187.968,32.214 185.241,32.214 C182.957,32.214 181.085,31.735 179.617,30.745 C178.186,29.758 177.471,28.362 177.471,26.556 C177.471,25.16 177.95,24.003 178.867,23.15 C178.289,22.434 177.98,21.547 177.98,20.494 C177.98,18.926 178.701,17.735 180.096,16.883 C179.315,15.895 178.904,14.735 178.904,13.34 C178.903,11.6 179.518,10.204 180.708,9.147 Z M183.742,24.783 C182.956,24.783 182.309,24.75 181.765,24.651 C181.529,25.024 181.389,25.534 181.389,26.217 C181.389,27.816 182.924,28.668 185.24,28.668 C187.621,28.668 188.818,27.955 188.818,26.555 C188.818,25.364 187.897,24.783 186.058,24.783 L183.742,24.783 Z M185.205,15.656 C186.569,15.656 187.559,14.7 187.559,13.339 C187.559,11.941 186.569,10.954 185.205,10.954 C183.841,10.954 182.854,11.94 182.854,13.339 C182.854,14.7 183.841,15.656 185.205,15.656 Z"></path>
                        <path d="M200.88,0.938 C201.935,-0.119 203.705,-0.119 204.765,0.938 C205.821,1.993 205.821,3.764 204.765,4.822 C203.705,5.878 201.934,5.878 200.88,4.822 C199.826,3.765 199.826,1.993 200.88,0.938 Z M200.71,7.819 L204.938,7.819 L204.938,24.99 L200.71,24.99 L200.71,7.819 Z"></path>
                        <path d="M229.706,17.769 L217.886,17.769 C217.986,19.845 219.481,21.654 221.938,21.654 C223.679,21.654 225.074,20.765 226.095,18.994 L229.504,20.256 C228.04,23.594 225.448,25.264 221.697,25.264 C215.806,25.264 213.455,20.494 213.455,16.407 C213.455,12.317 215.806,7.549 221.697,7.549 C224.426,7.549 226.639,8.673 227.867,10.41 C229.095,12.079 229.706,14.09 229.706,16.032 L229.706,17.769 Z M217.985,14.429 L225.379,14.429 C224.901,12.249 223.679,11.161 221.697,11.161 C219.689,11.161 218.291,12.623 217.985,14.429 Z"></path>
                        <path d="M248.621,10.341 L246.099,12.655 C245.314,11.669 244.357,11.161 243.232,11.161 C242.385,11.161 241.672,11.669 241.672,12.591 C241.672,13.304 242.214,13.847 243.302,14.259 L244.531,14.7 L245.998,15.209 C246.268,15.315 246.674,15.552 247.22,15.86 C247.8,16.165 248.211,16.438 248.449,16.745 C248.958,17.321 249.503,18.347 249.503,19.539 C249.503,21.142 248.924,22.468 247.8,23.593 C246.675,24.717 245.211,25.263 243.404,25.263 C241.773,25.263 240.342,24.784 239.148,23.865 C237.951,22.945 237.104,21.857 236.589,20.631 L239.966,18.824 C240.645,20.699 241.807,21.654 243.403,21.654 C244.802,21.654 245.519,21.039 245.519,19.812 C245.519,19.267 245.245,18.824 244.595,18.518 C244.291,18.347 243.95,18.21 243.642,18.109 C243.062,17.838 241.874,17.463 241.224,17.189 C239.041,16.268 237.75,15.008 237.75,12.554 C237.75,11.161 238.26,10 239.284,9.013 C240.306,8.025 241.634,7.547 243.231,7.547 C245.52,7.547 247.527,8.671 248.621,10.341 Z"></path>
                    </g>
                </g>
                <path d="M65.259,96.825 L46.312,96.825 L46.312,91.457 C43.055,94.401 37.779,96.825 31.798,96.825 C12.149,96.825 0.417,83.634 0.417,61.538 C0.417,39.44 12.148,26.247 31.798,26.247 C36.898,26.247 42.498,28.288 46.312,31.353 L46.312,0.69 L65.259,0.69 L65.259,96.825 Z M49.091,94.046 L62.48,94.046 L62.48,3.47 L49.091,3.47 L49.091,38.667 L46.612,35.541 C44.107,32.384 38.064,29.026 31.797,29.026 C13.621,29.026 3.196,40.877 3.196,61.538 C3.196,82.197 13.621,94.046 31.797,94.046 C38.535,94.046 44.556,90.434 46.484,86.941 L49.091,82.218 L49.091,94.046 Z M34.013,83.005 C29.195,83.005 25.148,81.034 21.985,77.146 C18.921,73.393 17.367,68.142 17.367,61.539 C17.367,54.934 18.921,49.682 21.986,45.926 C25.149,42.04 29.195,40.07 34.013,40.07 C38.885,40.07 42.895,42.049 45.93,45.951 C49.018,49.739 50.527,54.847 50.527,61.54 C50.527,68.225 48.974,73.52 45.91,77.278 C42.96,81.069 38.951,83.005 34.013,83.005 Z M34.013,42.849 C30.016,42.849 26.787,44.429 24.14,47.681 C21.489,50.929 20.145,55.591 20.145,61.538 C20.145,67.483 21.489,72.144 24.138,75.39 C26.786,78.645 30.015,80.226 34.012,80.226 C38.106,80.226 41.286,78.695 43.735,75.546 C46.404,72.271 47.747,67.567 47.747,61.538 C47.747,55.511 46.441,50.977 43.755,47.681 C41.254,44.466 37.982,42.849 34.013,42.849 Z" id="Shape"></path>
                <path d="M93.307,96.795 L74.58,96.795 L133.028,0.726 L151.755,0.726 L93.307,96.795 Z M79.26,94.164 L91.829,94.164 L147.075,3.356 L134.508,3.356 L79.26,94.164 Z" id="Shape"></path>
                <path d="M185.373,96.819 C169.161,96.819 159.864,87.473 159.864,71.178 L159.864,43.883 L149.697,43.883 L149.697,27.281 L159.864,27.281 L159.864,12.547 L178.81,0.625 L178.81,27.281 L196.154,27.281 L196.154,43.883 L178.81,43.883 L178.81,70.916 C178.81,78.637 181.696,80.219 186.028,80.219 C188.004,80.219 189.889,79.748 191.63,78.818 L193.143,78.01 L197.736,93.842 L196.651,94.343 C193.044,96.01 189.356,96.819 185.373,96.819 Z M152.476,41.104 L162.643,41.104 L162.643,71.179 C162.643,86.135 170.504,94.04 185.373,94.04 C188.543,94.04 191.506,93.468 194.393,92.295 L191.402,81.983 C189.696,82.659 187.896,82.999 186.029,82.999 C179.208,82.999 176.031,79.161 176.031,70.917 L176.031,41.104 L193.376,41.104 L193.376,30.062 L176.03,30.062 L176.03,5.66 L162.643,14.083 L162.643,30.062 L152.476,30.062 L152.476,41.104 L152.476,41.104 Z" id="Shape"></path>
            </g>
        </g>
    </g>
</svg>